<svg width="15" height="15" viewBox="0 0 15 15" fill="none" xmlns="http://www.w3.org/2000/svg">
<path fill-rule="evenodd" clip-rule="evenodd" d="M9.08354 7.49991L14.8903 1.69319C15.0366 1.54687 15.0366 1.31095 14.8903 1.16537L13.8346 0.109744C13.689 -0.0365813 13.4531 -0.0365813 13.3068 0.109744L7.50009 5.91646L1.69338 0.109744C1.54705 -0.0365813 1.31114 -0.0365813 1.16556 0.109744L0.109184 1.16537C-0.0363946 1.31095 -0.0363946 1.54687 0.109184 1.69319L5.91665 7.49991L0.109184 13.3066C-0.0363946 13.4529 -0.0363946 13.6889 0.109184 13.8344L1.16556 14.8901C1.31114 15.0364 1.54705 15.0364 1.69338 14.8901L7.50009 9.08335L13.3068 14.8901C13.4531 15.0364 13.689 15.0364 13.8346 14.8901L14.8903 13.8344C15.0366 13.6889 15.0366 13.4529 14.8903 13.3066L9.08354 7.49991Z" fill="black"/>
</svg>
