<?xml version="1.0" encoding="UTF-8"?>
<svg width="320px" height="34px" viewBox="0 0 320 34" version="1.1" xmlns="http://www.w3.org/2000/svg" xmlns:xlink="http://www.w3.org/1999/xlink">
    <!-- Generator: Sketch 52.4 (67378) - http://www.bohemiancoding.com/sketch -->
    <title>Color/pure-black</title>
    <desc>Created with Sketch.</desc>
    <defs>
        <path d="M291.06087,8.84869565 C291.06087,3.39478261 293.921132,0.556521739 299.19299,0.556521739 L308.89545,0.556521739 C314.784226,0.556521739 319.383081,5.00869565 319.383081,10.7408696 C319.383081,13.8573913 318.093158,16.4173913 315.961982,18.0313043 L318.878328,22.6504348 C319.663498,23.8747826 320,25.2104348 320,26.6017391 C320,30.72 316.747152,33.9478261 312.65305,33.9478261 C310.129289,33.9478261 307.661611,32.6678261 306.259521,30.3304348 L305.474351,28.9391304 C304.52093,31.8886957 301.885002,33.9478261 298.519987,33.9478261 C294.425885,33.9478261 291.06087,30.4973913 291.06087,26.3234783 L291.06087,8.84869565 Z M288.834783,27.5495085 C288.834783,31.1410909 285.959224,34.0031332 282.475375,33.9470147 L270.862543,33.9470147 C265.553819,33.9470147 262.678261,31.1410909 262.678261,25.6414803 L262.678261,8.86205613 C262.678261,3.418564 265.553819,0.556521739 270.862543,0.556521739 L282.475375,0.556521739 C285.959224,0.556521739 288.834783,3.418564 288.834783,7.01014643 C288.834783,10.265018 286.844011,12.621994 283.968453,13.1831788 C285.295634,14.0249559 286.014523,15.4279178 286.014523,17.2798275 C286.014523,19.1317372 285.240335,20.5346991 283.968453,21.3764762 C286.788712,21.9376609 288.834783,24.3507554 288.834783,27.5495085 Z M253.662609,26.4347826 C253.662609,30.5530435 250.212174,33.9478261 245.593043,33.9478261 C241.252174,33.9478261 237.746087,30.5530435 237.746087,26.4347826 L237.746087,14.9147826 C234.017391,14.6921739 230.956522,11.6313043 230.956522,7.73565217 C230.956522,3.67304348 234.184348,0.556521739 238.135652,0.556521739 L253.273043,0.556521739 C257.224348,0.556521739 260.452174,3.72869565 260.452174,7.73565217 C260.452174,11.6313043 257.391304,14.7478261 253.662609,14.9147826 L253.662609,26.4347826 Z M201.46087,8.84869565 C201.46087,3.39478261 204.377216,0.556521739 209.59299,0.556521739 L219.29545,0.556521739 C225.184226,0.556521739 229.783081,5.00869565 229.783081,10.7408696 C229.783081,13.8573913 228.493158,16.4173913 226.361982,18.0313043 L229.278328,22.6504348 C230.063498,23.8747826 230.4,25.2104348 230.4,26.6017391 C230.4,30.72 227.147152,33.9478261 223.05305,33.9478261 C220.529289,33.9478261 218.061611,32.6678261 216.659521,30.3304348 L215.874351,28.9391304 C214.92093,31.8886957 212.285002,33.9478261 208.919987,33.9478261 C204.825885,33.9478261 201.46087,30.4973913 201.46087,26.3234783 L201.46087,8.84869565 Z M183.050951,27.5865246 C181.152296,31.5116614 178.471842,33.3913043 175.232959,33.3913043 C169.369465,33.3913043 165.125411,28.0287936 167.750023,22.0028794 L174.618688,6.08119781 C176.349815,2.15606104 178.862741,0 183.106794,0 C187.40669,0 189.919616,2.15606104 191.5949,6.08119781 L198.463565,22.0028794 C201.032334,28.0287936 196.844124,33.3913043 190.924787,33.3913043 C187.630061,33.3913043 184.949607,31.5116614 183.050951,27.5865246 Z M163.493252,26.4347826 C163.493252,30.5530435 159.980538,33.9478261 155.46419,33.9478261 C151.115115,33.9478261 147.6024,30.5530435 147.6024,26.4347826 L147.6024,14.9147826 C143.866656,14.6921739 140.8,11.6313043 140.8,7.73565217 C140.8,3.67304348 144.033928,0.556521739 147.992702,0.556521739 L163.102951,0.556521739 C167.061724,0.556521739 170.295652,3.72869565 170.295652,7.73565217 C170.295652,11.6313043 167.228996,14.7478261 163.493252,14.9147826 L163.493252,26.4347826 Z M140.8,23.1157895 C140.8,29.7601831 135.669311,33.9478261 127.025216,33.9478261 C118.213815,33.9478261 114.086957,30.9327231 114.086957,26.019222 C114.086957,22.6132723 116.708069,20.4356979 120.444549,20.4356979 L120.500318,20.4356979 L118.492657,18.593135 C115.983081,16.3038902 114.254262,14.0146453 114.254262,10.6645309 C114.254262,4.13180778 119.05034,0 127.248289,0 C135.613543,0 139.573096,2.95926773 139.573096,7.92860412 C139.573096,10.8878719 137.565435,12.8979405 134.553944,13.3446224 L136.617373,15.1871854 C139.126949,17.420595 140.8,19.7656751 140.8,23.1157895 Z M112.417391,25.9151265 C112.417391,30.0128174 108.990882,33.4460179 104.77796,33.3906437 C102.418724,33.3906437 100.003316,32.2831597 98.5428362,30.17894 L96.9700122,27.9639719 C96.2397725,31.1756756 93.4311581,33.3906437 89.8361317,33.3906437 C85.6793824,33.3906437 82.3652174,30.0681916 82.3652174,25.9705007 L82.3652174,7.42014305 C82.3652174,3.32245211 85.6232101,0 89.8361317,0 C93.4873304,0 96.352117,2.38109068 97.0261845,5.64816859 L98.7675254,3.21170371 C100.228005,1.21823244 102.587241,0.0553742018 104.946477,0.0553742018 C108.990882,0.0553742018 112.417391,3.21170371 112.417391,7.30939464 C112.417391,8.8598723 111.968013,10.4103499 111.013084,11.6839566 L107.418058,16.6122606 L111.013084,21.5405645 C111.968013,22.8695454 112.417391,24.3646488 112.417391,25.9151265 Z M79.5826087,24.214224 C79.5826087,29.5767348 75.1011442,33.3913043 67.9086702,33.3913043 C58.2818205,33.3913043 51.2,26.2597178 51.2,16.6956522 C51.2,7.13158652 58.2818205,0 67.9086702,0 C75.1011442,0 79.5826087,3.81456954 79.5826087,9.17708033 C79.5826087,12.7705154 77.8121536,15.2029945 74.2712433,16.6956522 C77.8121536,18.1883098 79.5826087,20.6760726 79.5826087,24.214224 Z M40.3756169,0 C44.874148,0 48.4729729,3.66084068 48.4167412,7.98728875 L48.4167412,25.4040156 C48.4167412,29.7304637 44.874148,33.3913043 40.3193852,33.3913043 C35.8770858,33.3913043 32.2782609,29.785931 32.2782609,25.4040156 L32.2782609,7.98728875 C32.2782609,3.66084068 35.8770858,0 40.3756169,0 Z M30.0521739,25.9151265 C30.0521739,30.0128174 26.6320571,33.4460179 22.370928,33.3906437 C20.0160934,33.3906437 17.6051914,32.2831597 16.1474367,30.17894 L14.577547,27.9639719 C13.8486697,31.1756756 11.0452953,33.3906437 7.45697599,33.3906437 C3.30798183,33.3906437 0,30.0681916 0,25.9705007 L0,7.42014305 C0,3.32245211 3.25191434,0 7.45697599,0 C11.1013628,0 13.9608047,2.38109068 14.6336145,5.64816859 L16.4277742,3.21170371 C17.8855289,1.21823244 20.2403634,0.0553742018 22.5951979,0.0553742018 C26.6320571,0.0553742018 30.0521739,3.21170371 30.0521739,7.30939464 C30.0521739,8.8598723 29.603634,10.4103499 28.6504867,11.6839566 L25.0621674,16.6122606 L28.6504867,21.5405645 C29.603634,22.8695454 30.0521739,24.3646488 30.0521739,25.9151265 Z" id="path-1"></path>
    </defs>
    <g id="🥦-Logo" stroke="none" stroke-width="1" fill="none" fill-rule="evenodd">
        <g id="Logo/Wordmark/With-Clearance" transform="translate(-36.000000, -36.000000)">
            <g id="Color/pure-black" transform="translate(36.000000, 36.000000)">
                <mask id="mask-2" fill="white">
                    <use xlink:href="#path-1"></use>
                </mask>
                <use id="kickstarter-logo" fill="#034752" fill-rule="nonzero" xlink:href="#path-1"></use>
                <g id="Color/green-800" mask="url(#mask-2)" fill="#034752">
                    <g transform="translate(-36.000000, -36.000000)" id="Container">
                        <rect x="0" y="0" width="392" height="106"></rect>
                    </g>
                </g>
            </g>
        </g>
    </g>
</svg>