<svg width="16" height="16" viewBox="0 0 16 16" fill="none" xmlns="http://www.w3.org/2000/svg">
<g clip-path="url(#clip0_4677_668)">
<path d="M5.78696 1.66874C6.79196 0.00266504 9.20804 0.00266504 10.213 1.66874C10.6717 2.42913 11.4887 2.90078 12.3765 2.91782C14.3219 2.95514 15.5299 5.04753 14.5896 6.75092C14.1604 7.52834 14.1604 8.47166 14.5896 9.24908C15.5299 10.9525 14.3219 13.0449 12.3765 13.0822C11.4887 13.0992 10.6717 13.5709 10.213 14.3313C9.20804 15.9973 6.79196 15.9973 5.78696 14.3313C5.32828 13.5709 4.51134 13.0992 3.62349 13.0822C1.67812 13.0449 0.470084 10.9525 1.41044 9.24908C1.83962 8.47166 1.83962 7.52834 1.41044 6.75092C0.470084 5.04753 1.67812 2.95514 3.62349 2.91782C4.51134 2.90078 5.32828 2.42913 5.78696 1.66874Z" fill="#05CE78"/>
<path fill-rule="evenodd" clip-rule="evenodd" d="M3.6101 5.1004C4.11889 4.38629 4.91388 4.00002 5.89623 4C6.79578 3.99998 7.49247 4.31518 7.9713 4.64539C8.43746 4.30717 9.11218 4.00003 10 4.00003C10.976 4.00003 11.781 4.37958 12.3143 5.06849C12.8185 5.71975 13 6.5425 13 7.32229C13 8.29287 12.5857 9.35931 11.5476 10.3807C11.526 10.402 11.5034 10.4222 11.48 10.4414L8.63379 12.7735C8.26522 13.0755 7.73478 13.0755 7.36621 12.7735L4.52 10.4414C4.49657 10.4222 4.47403 10.402 4.45244 10.3807C3.41432 9.35931 3 8.29287 3 7.32229C3 6.57733 3.14112 5.75863 3.6101 5.1004ZM8.86314 6.53929C8.86022 6.54428 8.85726 6.54923 8.85427 6.55416C8.85281 6.55633 8.85262 6.55668 8.85369 6.55498L8.85718 6.54931L8.86003 6.54455L8.86174 6.54167L8.86266 6.54011L8.86314 6.53929ZM10.1756 8.92457C10.8642 8.23477 11 7.67384 11 7.32229C11 6.82077 10.8796 6.48238 10.7329 6.29283C10.6153 6.14095 10.4203 6.00003 10 6.00003C9.56882 6.00003 9.28209 6.15426 9.09846 6.30015C9.00308 6.37593 8.93491 6.45057 8.8937 6.50154C8.87341 6.52662 8.86073 6.54465 8.85553 6.55228C8.85504 6.55301 8.85462 6.55363 8.85427 6.55416C8.67967 6.84111 8.37226 7.02164 8.03576 7.03368C7.69789 7.04577 7.37714 6.88635 7.18271 6.61054C7.18184 6.6094 7.18045 6.60757 7.17854 6.60512C7.17043 6.59473 7.15341 6.57366 7.12766 6.54534C7.0755 6.48795 6.99197 6.40569 6.87903 6.32259C6.65592 6.15841 6.33283 5.99999 5.89626 6C5.48236 6.00001 5.32923 6.13422 5.23896 6.26093C5.10888 6.4435 5 6.78594 5 7.32229C5 7.67384 5.13583 8.23477 5.82439 8.92457L8 10.7072L10.1756 8.92457Z" fill="#024629"/>
</g>
<defs>
<clipPath id="clip0_4677_668">
<rect width="16" height="16" fill="white"/>
</clipPath>
</defs>
</svg>
