<svg width="24" height="24" viewBox="0 0 24 24" fill="none" xmlns="http://www.w3.org/2000/svg">
<path d="M12.0004 4C14.2093 4.0002 16.0004 5.79099 16.0004 8C16.0004 9.36305 15.3169 10.5649 14.2758 11.2871C17.4541 12.0996 20.097 14.5775 20.097 18.001C20.097 18.1127 20.0943 18.2242 20.0883 18.335C19.9932 20.0902 18.4626 21 17.1927 21H6.80701C5.53716 20.9999 4.00654 20.0901 3.9115 18.335C3.9055 18.2242 3.90271 18.1127 3.90271 18.001C3.90277 14.5779 6.54517 12.0999 9.72302 11.2871C8.68235 10.5649 8.00037 9.36269 8.00037 8C8.00037 5.79086 9.79123 4 12.0004 4ZM12.0004 13C8.63298 13 5.90279 15.239 5.90271 18.001C5.90271 18.0765 5.90453 18.1518 5.90857 18.2266C5.93343 18.6857 6.34725 18.9999 6.80701 19H17.1927C17.6526 19 18.0663 18.6857 18.0912 18.2266C18.0952 18.1518 18.097 18.0765 18.097 18.001C18.097 15.2391 15.3676 13.0002 12.0004 13ZM12.0004 6C10.8958 6 10.0004 6.89543 10.0004 8C10.0004 9.10457 10.8958 10 12.0004 10C13.1048 9.9998 14.0004 9.10444 14.0004 8C14.0004 6.89556 13.1048 6.0002 12.0004 6Z" fill="#454545"/>
</svg>
