<svg width="28" height="28" viewBox="0 0 28 28" fill="none" xmlns="http://www.w3.org/2000/svg">
<path d="M21.0005 3.5C21.0407 3.50001 21.0805 3.50188 21.1196 3.50586C21.7079 3.56568 22.1665 4.06299 22.1665 4.66699V23.3262C22.1664 23.988 21.6466 24.454 21.0718 24.4922C20.9672 24.4991 20.8607 24.4925 20.7554 24.4697C20.5974 24.4356 20.4414 24.3664 20.2974 24.2578L14.7026 20.0391C14.5467 19.9215 14.3686 19.8478 14.1851 19.8184C14.0625 19.7987 13.9375 19.7987 13.8149 19.8184C13.6315 19.8478 13.4532 19.9216 13.2974 20.0391L7.70264 24.2578C7.51054 24.4026 7.29758 24.4771 7.08643 24.4922C6.98062 24.4997 6.87512 24.4925 6.77295 24.4717C6.26312 24.3678 5.83361 23.9276 5.8335 23.3262V4.66699C5.8335 4.02266 6.35616 3.5 7.00049 3.5H21.0005Z" fill="white"/>
</svg>
