<svg width="16" height="16" viewBox="0 0 16 16" fill="none" xmlns="http://www.w3.org/2000/svg">
<g clip-path="url(#clip0_4677_673)">
<path d="M8 0C12.4183 0 16 3.58172 16 8C16 12.4183 12.4183 16 8 16C3.58172 16 0 12.4183 0 8C0 3.58172 3.58172 0 8 0ZM8 2C4.68629 2 2 4.68629 2 8C2 11.3137 4.68629 14 8 14C11.3137 14 14 11.3137 14 8C14 4.68629 11.3137 2 8 2ZM8 3C8.55229 3 9 3.44772 9 4V8H11C11.5523 8 12 8.44771 12 9C12 9.55229 11.5523 10 11 10H8C7.44772 10 7 9.55229 7 9V4C7 3.44772 7.44772 3 8 3Z" fill="white"/>
</g>
<defs>
<clipPath id="clip0_4677_673">
<rect width="16" height="16" fill="white"/>
</clipPath>
</defs>
</svg>
