<svg width="16" height="16" viewBox="0 0 16 16" fill="none" xmlns="http://www.w3.org/2000/svg">
<g clip-path="url(#clip0_4007_1440)">
<path fill-rule="evenodd" clip-rule="evenodd" d="M11.233 3.93451L12.5116 3.91658C15.415 3.87587 16.6769 7.57215 14.3547 9.31544L13.1531 10.2175L13.6067 11.6367C14.509 14.4601 11.206 16.7425 8.88419 14.8999L8.00001 14.1982L7.11583 14.8999C4.79398 16.7425 1.49098 14.4601 2.39335 11.6367L2.8469 10.2175L1.64528 9.31544C-0.676839 7.57215 0.585059 3.87587 3.48846 3.91658L4.76701 3.93451L5.12037 2.72492C5.96123 -0.153424 10.0388 -0.153426 10.8796 2.72492L11.233 3.93451ZM8.95989 3.28575C8.6796 2.3263 7.32042 2.3263 7.04013 3.28575L6.47347 5.22549C6.34743 5.65694 5.94901 5.95128 5.49957 5.94497L3.46042 5.91638C2.49262 5.90281 2.07199 7.13491 2.84603 7.716L4.61627 9.04498C4.9567 9.30055 5.09802 9.74364 4.96843 10.1491L4.29842 12.2455C3.99763 13.1867 5.09863 13.9475 5.87258 13.3333L7.37839 12.1383C7.74245 11.8494 8.25757 11.8494 8.62163 12.1383L10.1274 13.3333C10.9014 13.9475 12.0024 13.1867 11.7016 12.2455L11.0316 10.1491C10.902 9.74364 11.0433 9.30055 11.3838 9.04498L13.154 7.716C13.928 7.1349 13.5074 5.90281 12.5396 5.91638L10.5005 5.94497C10.051 5.95128 9.65259 5.65694 9.52655 5.22549L8.95989 3.28575Z" fill="#582281"/>
</g>
<defs>
<clipPath id="clip0_4007_1440">
<rect width="16" height="16" fill="white"/>
</clipPath>
</defs>
</svg>
