<svg width="28" height="28" viewBox="0 0 28 28" fill="none" xmlns="http://www.w3.org/2000/svg">
<path fill-rule="evenodd" clip-rule="evenodd" d="M14.9249 6.75837C15.3805 6.30275 16.1192 6.30275 16.5748 6.75837L22.9915 13.175C23.4471 13.6306 23.4471 14.3693 22.9915 14.8249L16.5748 21.2416C16.1192 21.6972 15.3805 21.6972 14.9249 21.2416C14.4693 20.786 14.4693 20.0473 14.9249 19.5917L19.3499 15.1667H10.4998C8.56684 15.1667 6.99984 16.7337 6.99984 18.6667V20.4167C6.99984 21.061 6.4775 21.5833 5.83317 21.5833C5.18884 21.5833 4.6665 21.061 4.6665 20.4167V18.6667C4.6665 15.445 7.27818 12.8333 10.4998 12.8333H19.3499L14.9249 8.40828C14.4693 7.95267 14.4693 7.21398 14.9249 6.75837Z" fill="white"/>
</svg>
