<svg width="24" height="24" viewBox="0 0 24 24" fill="none" xmlns="http://www.w3.org/2000/svg">
<path fill-rule="evenodd" clip-rule="evenodd" d="M6.34314 13.4142C6.19113 13.5662 6.06463 13.7417 5.96849 13.934L4.55428 16.7624C4.16929 17.5324 4.3202 18.4624 4.92892 19.0711C5.53764 19.6798 6.46759 19.8307 7.23756 19.4457L10.066 18.0315C10.2583 17.9354 10.4338 17.8089 10.5858 17.6569L19.0711 9.17158C20.2426 8.00001 20.2426 6.10051 19.0711 4.92894C17.8995 3.75736 16 3.75736 14.8284 4.92894L6.34314 13.4142ZM8.19354 14.3922L9.60775 15.8065L17.6568 7.75736C18.0474 7.36684 18.0474 6.73368 17.6568 6.34315C17.2663 5.95263 16.6332 5.95263 16.2426 6.34315L8.19354 14.3922Z" fill="#656969"/>
</svg>
