<svg width="24" height="24" viewBox="0 0 24 24" fill="none" xmlns="http://www.w3.org/2000/svg">
<path fill-rule="evenodd" clip-rule="evenodd" d="M4.00005 9H20V19C20 20.6569 18.6569 22 17 22H7.00005C5.34319 22 4.00005 20.6569 4.00005 19V9ZM6.00005 11V19C6.00005 19.5523 6.44776 20 7.00005 20H17C17.5523 20 18 19.5523 18 19V11H6.00005Z" fill="#454545"/>
<path fill-rule="evenodd" clip-rule="evenodd" d="M11.3861 2.21065C11.7472 1.92978 12.2529 1.92978 12.614 2.21065L21.614 9.21065C22.0499 9.54972 22.1285 10.178 21.7894 10.6139C21.4503 11.0499 20.8221 11.1284 20.3861 10.7894L12 4.26686L3.61399 10.7894C3.17804 11.1284 2.54976 11.0499 2.21069 10.6139C1.87162 10.178 1.95016 9.54972 2.38611 9.21065L11.3861 2.21065Z" fill="#454545"/>
<path d="M2.00005 10C2.00005 9.44772 2.44776 9 3.00005 9H21C21.5523 9 22 9.44772 22 10C22 10.5523 21.5523 11 21 11H3.00005C2.44776 11 2.00005 10.5523 2.00005 10Z" fill="#454545"/>
<path fill-rule="evenodd" clip-rule="evenodd" d="M16 22H8.00005V15C8.00005 13.3431 9.34319 12 11 12H13C14.6569 12 16 13.3431 16 15V22ZM11 14C10.4478 14 10 14.4477 10 15V20H14V15C14 14.4477 13.5523 14 13 14H11Z" fill="#454545"/>
</svg>
