<svg width="12" height="15" viewBox="0 0 12 15" fill="none" xmlns="http://www.w3.org/2000/svg">
<path fill-rule="evenodd" clip-rule="evenodd" d="M6.07405 0.0829974C5.43153 0.545983 4.90837 1.15516 4.54775 1.86024C4.18712 2.56531 3.99939 3.34605 4.00005 4.138V4.17C4.00405 4.77 4.11405 5.346 4.31105 5.879C4.47105 6.307 4.10705 6.789 3.70105 6.579C2.94648 6.18711 2.30374 5.61009 1.83305 4.902C1.63105 4.598 1.18505 4.539 0.985047 4.844C0.32554 5.84807 -0.0173805 7.027 0.00067827 8.22816C0.0187371 9.42933 0.396943 10.5974 1.08634 11.5812C1.77573 12.565 2.74457 13.3192 3.86742 13.7462C4.99028 14.1732 6.21545 14.2533 7.38434 13.9761C8.55323 13.6989 9.612 13.0773 10.4236 12.1916C11.2352 11.3059 11.7623 10.197 11.9365 9.0084C12.1108 7.81981 11.9243 6.60627 11.4011 5.52489C10.8779 4.4435 10.0422 3.54406 9.00205 2.943L8.99805 2.936C7.99408 2.35771 7.22317 1.44746 6.81805 0.361997C6.70205 0.0519974 6.34105 -0.109003 6.07405 0.0829974ZM6.85405 6.261C7.32568 6.40086 7.7557 6.65453 8.10625 6.99966C8.4568 7.3448 8.71713 7.77081 8.86432 8.24021C9.01151 8.70961 9.04106 9.208 8.95035 9.6915C8.85964 10.175 8.65146 10.6288 8.34414 11.0129C8.03682 11.3971 7.63978 11.6997 7.18797 11.8943C6.73616 12.089 6.24344 12.1695 5.75318 12.1289C5.26292 12.0883 4.79016 11.9278 4.37651 11.6616C3.96286 11.3953 3.62101 11.0314 3.38105 10.602C3.17605 10.237 3.59605 9.908 4.00105 10.012C4.61425 10.1698 5.25611 10.1801 5.87405 10.042C6.16205 9.977 6.28705 9.656 6.19505 9.376C6.06525 8.97583 5.99944 8.55769 6.00005 8.137C6.00005 7.552 6.12605 6.997 6.35105 6.496C6.39194 6.40233 6.46559 6.3268 6.55818 6.28354C6.65078 6.24027 6.75597 6.23226 6.85405 6.261Z" fill="white"/>
</svg>
