<svg width="28" height="28" viewBox="0 0 28 28" fill="none" xmlns="http://www.w3.org/2000/svg">
<path d="M6.99951 11.6667C8.28807 11.6667 9.33332 12.7112 9.3335 13.9997C9.3335 15.2884 8.28818 16.3337 6.99951 16.3337C5.711 16.3335 4.6665 15.2883 4.6665 13.9997C4.66668 12.7113 5.71111 11.6669 6.99951 11.6667ZM13.9995 11.6667C15.2881 11.6667 16.3333 12.7112 16.3335 13.9997C16.3335 15.2884 15.2882 16.3337 13.9995 16.3337C12.711 16.3335 11.6665 15.2883 11.6665 13.9997C11.6667 12.7113 12.7111 11.6669 13.9995 11.6667ZM20.9995 11.6667C22.2881 11.6667 23.3333 12.7112 23.3335 13.9997C23.3335 15.2884 22.2882 16.3337 20.9995 16.3337C19.711 16.3335 18.6665 15.2883 18.6665 13.9997C18.6667 12.7113 19.7111 11.6669 20.9995 11.6667Z" fill="white"/>
</svg>
