<svg width="24" height="24" viewBox="0 0 24 24" fill="none" xmlns="http://www.w3.org/2000/svg">
<path d="M10.5 3C14.6421 3 18 6.35786 18 10.5C18 12.3231 17.3481 13.9932 16.2666 15.293L20.6699 19.2559C21.0804 19.6253 21.1136 20.2575 20.7441 20.668C20.3747 21.0785 19.7425 21.1116 19.332 20.7422L14.7871 16.6514C13.5717 17.5 12.0948 18 10.5 18C6.35786 18 3 14.6421 3 10.5C3 6.35786 6.35786 3 10.5 3ZM10.5 5C7.46243 5 5 7.46243 5 10.5C5 13.5376 7.46243 16 10.5 16C13.5376 16 16 13.5376 16 10.5C16 7.46243 13.5376 5 10.5 5Z" fill="#454545"/>
</svg>
